<?xml version="1.0" standalone="no"?>
<!DOCTYPE svg PUBLIC "-//W3C//DTD SVG 20010904//EN"
 "http://www.w3.org/TR/2001/REC-SVG-20010904/DTD/svg10.dtd">
<svg version="1.0" xmlns="http://www.w3.org/2000/svg"
 width="417.000000pt" height="417.000000pt" viewBox="0 0 417.000000 417.000000"
 preserveAspectRatio="xMidYMid meet">

<g transform="translate(0.000000,417.000000) scale(0.100000,-0.100000)"
fill="#000000" stroke="none">
<path d="M640 475 l0 -365 65 0 65 0 2 247 3 248 137 -200 c75 -110 151 -221
170 -247 l33 -48 73 0 72 0 0 365 0 365 -70 0 -70 0 -2 -242 -3 -241 -151 219
c-83 120 -156 229 -163 242 -11 20 -19 22 -86 22 l-75 0 0 -365z"/>
<path d="M1540 475 l0 -365 70 0 70 0 0 365 0 365 -70 0 -70 0 0 -365z"/>
<path d="M1940 568 c0 -243 2 -277 19 -313 27 -59 65 -100 117 -125 42 -19 60
-21 174 -18 l128 3 55 38 c44 31 60 50 83 100 l28 62 1 260 0 260 -72 3 -72 3
-3 -263 c-3 -245 -4 -265 -23 -290 -32 -44 -78 -61 -151 -56 -53 3 -69 9 -92
31 -46 44 -52 83 -52 341 l0 236 -70 0 -70 0 0 -272z"/>
<path d="M2800 475 l0 -365 65 0 65 0 2 246 3 247 31 -49 c17 -27 46 -76 65
-109 18 -33 42 -73 54 -90 12 -16 30 -47 40 -67 11 -21 25 -38 32 -38 6 0 34
37 61 83 113 189 151 250 161 260 8 8 11 -59 11 -236 l0 -247 65 0 65 0 0 365
0 366 -76 -3 -75 -3 -43 -80 c-24 -44 -64 -118 -90 -164 -25 -47 -46 -87 -46
-91 0 -3 -5 -11 -12 -18 -9 -9 -22 8 -58 71 -26 45 -73 128 -106 184 l-59 103
-77 0 -78 0 0 -365z"/>
</g>
</svg>
